# xmcd
#
# Track frame offsets: 
#        150
#        15300
#        28190
#        50729
#        70318
#        88868
#        126762
#        142791
#        167760
#        182543
#        203797
#        220922
#        239078
#        255735
#
# Disc length: 3635 seconds
#
# Revision: 0
# Processed by: cddbd v1.5.2PL0 Copyright (c) Steve Scherf et al.
# Submitted via: ExactAudioCopy v1.3
#
DISCID=c90e310e
DTITLE=Various Artist - The Best of WUNC's Back Porch Music Volume 2
DYEAR=2020
DGENRE=Bluegrass
TTITLE0=Erynn Marshall w/Bob Carlin - Greasy Creek
TTITLE1=Troublesome Creek String Band - I'm Going to the West
TTITLE2=Kelly Hunt - Across the Great Divide
TTITLE3=The Gravy Boys - Tell Me
TTITLE4=Martin Simpson and Don Flemmons - If I Lose
TTITLE5=Darrell Scott w/Danny Thompson and Kenny Malone - Wayfarin' Pilg
TTITLE5=rim
TTITLE6=Lula Wiles - Shaking as it Turns
TTITLE7=Mandolin Orange - Wildfire
TTITLE8=DeFord Bailey - Muscle Shoals Blues
TTITLE9=Chatham Rabbits - Come Home
TTITLE10=Andy IRvine and Paul Brady - Mary and the Soldier
TTITLE11=Rod Abernathy - Simple and True
TTITLE12=Missy Raines - I've Endured
TTITLE13=Lucinda Williams - Lafayette
EXTD=
EXTT0=
EXTT1=
EXTT2=
EXTT3=
EXTT4=
EXTT5=
EXTT6=
EXTT7=
EXTT8=
EXTT9=
EXTT10=
EXTT11=
EXTT12=
EXTT13=
PLAYORDER=
